<?xml version="1.0" encoding="UTF-8" standalone="no"?>
<svg
   version="1.1"
   width="238"
   height="131"
   id="svg37"
   sodipodi:docname="undefined - Imgur (1).svg"
   inkscape:export-filename="undefined - Imgur (1).png"
   inkscape:export-xdpi="96"
   inkscape:export-ydpi="96"
   inkscape:version="1.3 (0e150ed6c4, 2023-07-21)"
   xmlns:inkscape="http://www.inkscape.org/namespaces/inkscape"
   xmlns:sodipodi="http://sodipodi.sourceforge.net/DTD/sodipodi-0.dtd"
   xmlns="http://www.w3.org/2000/svg"
   xmlns:svg="http://www.w3.org/2000/svg">
  <defs
     id="defs37" />
  <sodipodi:namedview
     id="namedview37"
     pagecolor="#ffffff"
     bordercolor="#000000"
     borderopacity="0.25"
     inkscape:showpageshadow="2"
     inkscape:pageopacity="0.0"
     inkscape:pagecheckerboard="0"
     inkscape:deskcolor="#d1d1d1"
     inkscape:zoom="5.0210084"
     inkscape:cx="119"
     inkscape:cy="65.425105"
     inkscape:window-width="1920"
     inkscape:window-height="1009"
     inkscape:window-x="-8"
     inkscape:window-y="431"
     inkscape:window-maximized="1"
     inkscape:current-layer="svg37" />
  <path
     d="M0 0 C3.76144071 1.11274138 6.06709694 3.33377392 8.73193359 6.12329102 C9.28461914 6.66920898 9.83730469 7.21512695 10.40673828 7.77758789 C12.0007458 9.36878411 13.55803926 10.98828936 15.10693359 12.62329102 C16.27095703 13.82985352 16.27095703 13.82985352 17.45849609 15.06079102 C23.97766279 22.14334248 23.5587056 29.28855863 23.99414062 38.53686523 C24.0978214 40.45473513 24.25416499 42.36956722 24.41552734 44.28344727 C24.74406003 50.01600748 24.70172936 53.74707683 20.98193359 58.31079102 C17.36263752 62.06681605 13.30809777 63.4188232 8.15014648 63.89794922 C4.82286853 63.92625635 1.4968486 63.94504927 -1.83056641 63.93579102 C-3.56209961 63.95996094 -3.56209961 63.95996094 -5.32861328 63.98461914 C-13.30296791 63.98919421 -18.59001923 63.49550596 -24.76806641 58.12329102 C-31.00975765 50.78012484 -27.88497656 36.91546652 -27.40478516 27.87719727 C-26.06499655 19.35777808 -21.68247415 14.65647773 -15.76806641 8.68579102 C-15.04619141 7.90655273 -14.32431641 7.12731445 -13.58056641 6.32446289 C-9.3545704 2.03455057 -6.22040355 -0.61961314 0 0 Z "
     fill="#119E9F"
     transform="translate(81.89306640625,67.376708984375)"
     id="path1"
     style="fill:#ffffff;fill-opacity:1" />
  <path
     d="M0 0 C3.454913 0.98019514 5.72540792 2.99161129 8.13378906 5.52514648 C8.63692627 6.02151611 9.14006348 6.51788574 9.65844727 7.02929688 C11.15672458 8.5247053 12.61698011 10.04957095 14.07128906 11.58764648 C14.89886719 12.44358398 15.72644531 13.29952148 16.57910156 14.18139648 C24.08260819 22.24968318 23.58079734 30.01566332 24.07128906 40.58764648 C24.12671875 41.75682617 24.18214844 42.92600586 24.23925781 44.13061523 C24.26632813 45.16831055 24.29339844 46.20600586 24.32128906 47.27514648 C24.34707031 48.18651367 24.37285156 49.09788086 24.39941406 50.03686523 C23.83341107 54.43686468 21.51736183 57.57334831 18.13378906 60.33764648 C12.14585676 64.73694369 5.5137257 63.84073759 -1.67871094 63.90014648 C-2.83371094 63.92915039 -3.98871094 63.9581543 -5.17871094 63.98803711 C-13.51407605 64.04988628 -18.86210782 63.02861835 -25.36621094 57.52514648 C-31.04470349 50.48381572 -27.89122703 36.32656041 -27.44042969 27.84155273 C-26.10064108 19.32213355 -21.71811868 14.6208332 -15.80371094 8.65014648 C-15.08183594 7.8709082 -14.35996094 7.09166992 -13.61621094 6.28881836 C-9.36068772 1.96893225 -6.25444387 -0.6242244 0 0 Z "
     fill="#DCE0E8"
     transform="translate(81.9287109375,-0.587646484375)"
     id="path2"
     style="fill:#000000;fill-opacity:1" />
  <path
     d="M0 0 C1.31859009 0.00628418 1.31859009 0.00628418 2.66381836 0.01269531 C4.05032593 0.04508301 4.05032593 0.04508301 5.46484375 0.078125 C6.88132202 0.09891113 6.88132202 0.09891113 8.32641602 0.12011719 C11.01936624 0.16930349 13.71029659 0.24370173 16.40234375 0.328125 C18.19285156 0.37453125 18.19285156 0.37453125 20.01953125 0.421875 C29.77569728 0.96238281 35.01086816 6.49518854 41.77734375 13.078125 C42.51339844 13.75617188 43.24945313 14.43421875 44.0078125 15.1328125 C49.87523751 20.85872262 49.87523751 20.85872262 50.05078125 25.609375 C49.42516957 29.19722028 49.15596309 30.57450566 46.65234375 33.078125 C45.69134766 34.04878906 45.69134766 34.04878906 44.7109375 35.0390625 C43.94910156 35.79445312 43.18726563 36.54984375 42.40234375 37.328125 C41.49257199 38.35773683 40.58793907 39.39190397 39.6875 40.4296875 C34.39342597 46.3717803 30.25759275 50.63209258 21.95703125 51.2265625 C20.19746094 51.27683594 20.19746094 51.27683594 18.40234375 51.328125 C16.73777057 51.45984399 15.07373226 51.59842167 13.41015625 51.7421875 C11.61616268 51.8786941 9.82188316 52.01149223 8.02734375 52.140625 C7.17076172 52.20660889 6.31417969 52.27259277 5.43164062 52.34057617 C0.25486268 52.61514841 -3.12544367 52.28019248 -7.59765625 49.328125 C-14.50314271 43.02953402 -14.32260626 35.23361009 -14.73046875 26.4765625 C-14.90202965 17.7759742 -14.2424257 10.3010755 -8.59765625 3.328125 C-5.68036038 0.72999882 -3.89726904 -0.04617334 0 0 Z "
     fill="#119E9F"
     transform="translate(122.59765625,67.671875)"
     id="path3"
     style="fill:#ffffff;fill-opacity:1" />
  <path
     d="M0 0 C1.31859009 0.00628418 1.31859009 0.00628418 2.66381836 0.01269531 C4.05032593 0.04508301 4.05032593 0.04508301 5.46484375 0.078125 C6.88132202 0.09891113 6.88132202 0.09891113 8.32641602 0.12011719 C11.01936624 0.16930349 13.71029659 0.24370173 16.40234375 0.328125 C18.19285156 0.37453125 18.19285156 0.37453125 20.01953125 0.421875 C29.77569728 0.96238281 35.01086816 6.49518854 41.77734375 13.078125 C42.51339844 13.75617187 43.24945313 14.43421875 44.0078125 15.1328125 C49.87523751 20.85872262 49.87523751 20.85872262 50.05078125 25.609375 C49.42516957 29.19722028 49.15596309 30.57450566 46.65234375 33.078125 C45.69134766 34.04878906 45.69134766 34.04878906 44.7109375 35.0390625 C43.94910156 35.79445312 43.18726563 36.54984375 42.40234375 37.328125 C41.49257199 38.35773683 40.58793907 39.39190397 39.6875 40.4296875 C34.39342597 46.3717803 30.25759275 50.63209258 21.95703125 51.2265625 C20.19746094 51.27683594 20.19746094 51.27683594 18.40234375 51.328125 C16.73777057 51.45984399 15.07373226 51.59842167 13.41015625 51.7421875 C11.61616268 51.8786941 9.82188316 52.01149223 8.02734375 52.140625 C7.17076172 52.20660889 6.31417969 52.27259277 5.43164062 52.34057617 C0.25486268 52.61514841 -3.12544367 52.28019248 -7.59765625 49.328125 C-14.50314271 43.02953402 -14.32260626 35.23361009 -14.73046875 26.4765625 C-14.90202965 17.7759742 -14.2424257 10.3010755 -8.59765625 3.328125 C-5.68036038 0.72999882 -3.89726904 -0.04617334 0 0 Z "
     fill="#DDE1E9"
     transform="translate(122.59765625,-0.328125)"
     id="path4"
     style="fill:#000000;fill-opacity:1" />
  <path
     d="M0 0 C1.70542969 -0.0299707 1.70542969 -0.0299707 3.4453125 -0.06054688 C11.6374996 -0.05579503 17.17738516 1.00694822 23.4375 6.625 C27.33506131 13.64061035 25.94603516 22.48139649 25.25 30.1875 C25.17523438 31.20199219 25.10046875 32.21648437 25.0234375 33.26171875 C24.36961373 40.80050497 22.79542839 44.98184302 17.25 50.25 C13.76636186 53.63080011 10.56990446 57.15791586 7.4453125 60.87109375 C5.13872179 63.37093935 3.8428451 63.45917654 0.375 63.9375 C-5.3907887 63.81350454 -8.15302267 60.36967444 -12 56.4375 C-13.04342903 55.42486955 -14.08916387 54.41461171 -15.13671875 53.40625 C-16.2382727 52.33466144 -17.33853321 51.26174166 -18.4375 50.1875 C-18.97020508 49.66833008 -19.50291016 49.14916016 -20.05175781 48.61425781 C-27.59693657 41.07885893 -26.15100636 29.71953042 -26.375 19.625 C-26.41310791 18.71766113 -26.45121582 17.81032227 -26.49047852 16.87548828 C-26.54676223 12.35861622 -26.30827024 9.96298768 -23.9765625 5.98828125 C-16.69676231 -0.2501827 -9.18914375 -0.05730192 0 0 Z "
     fill="#119FA0"
     transform="translate(26,67.5625)"
     id="path5"
     style="fill:#ffffff;fill-opacity:1" />
  <path
     d="M0 0 C1.3610083 -0.05716187 1.3610083 -0.05716187 2.74951172 -0.11547852 C7.26638378 -0.17176223 9.66201232 0.06672976 13.63671875 2.3984375 C19.8751827 9.67823769 19.68230192 17.18585625 19.625 26.375 C19.6549707 28.08042969 19.6549707 28.08042969 19.68554688 29.8203125 C19.68079503 38.0124996 18.61805178 43.55238516 13 49.8125 C5.98438965 53.71006131 -2.85639649 52.32103516 -10.5625 51.625 C-11.57699219 51.55023438 -12.59148437 51.47546875 -13.63671875 51.3984375 C-21.17550497 50.74461373 -25.35684302 49.17042839 -30.625 43.625 C-34.00580011 40.14136186 -37.53291586 36.94490446 -41.24609375 33.8203125 C-43.74593935 31.51372179 -43.83417654 30.2178451 -44.3125 26.75 C-44.18850454 20.9842113 -40.74467444 18.22197733 -36.8125 14.375 C-35.79986955 13.33157097 -34.78961171 12.28583613 -33.78125 11.23828125 C-32.70966144 10.1367273 -31.63674166 9.03646679 -30.5625 7.9375 C-30.04333008 7.40479492 -29.52416016 6.87208984 -28.98925781 6.32324219 C-21.45385893 -1.22193657 -10.09453042 0.22399364 0 0 Z "
     fill="#119E9F"
     transform="translate(218.8125,67.625)"
     id="path6"
     style="fill:#ffffff;fill-opacity:1" />
  <path
     d="M0 0 C1.70542969 -0.0299707 1.70542969 -0.0299707 3.4453125 -0.06054688 C11.6374996 -0.05579503 17.17738516 1.00694822 23.4375 6.625 C27.33506131 13.64061035 25.94603516 22.48139649 25.25 30.1875 C25.17523438 31.20199219 25.10046875 32.21648438 25.0234375 33.26171875 C24.36961373 40.80050497 22.79542839 44.98184302 17.25 50.25 C13.76636186 53.63080011 10.56990446 57.15791586 7.4453125 60.87109375 C5.13872179 63.37093935 3.8428451 63.45917654 0.375 63.9375 C-5.3907887 63.81350454 -8.15302267 60.36967444 -12 56.4375 C-13.04342903 55.42486955 -14.08916387 54.41461171 -15.13671875 53.40625 C-16.2382727 52.33466144 -17.33853321 51.26174166 -18.4375 50.1875 C-18.97020508 49.66833008 -19.50291016 49.14916016 -20.05175781 48.61425781 C-27.59693657 41.07885893 -26.15100636 29.71953042 -26.375 19.625 C-26.41310791 18.71766113 -26.45121582 17.81032227 -26.49047852 16.87548828 C-26.54676223 12.35861622 -26.30827024 9.96298768 -23.9765625 5.98828125 C-16.69676231 -0.2501827 -9.18914375 -0.05730192 0 0 Z "
     fill="#DCE0E8"
     transform="translate(26,-0.4375)"
     id="path7"
     style="fill:#000000;fill-opacity:1" />
  <path
     d="M0 0 C1.3610083 -0.05716187 1.3610083 -0.05716187 2.74951172 -0.11547852 C7.26638378 -0.17176223 9.66201232 0.06672976 13.63671875 2.3984375 C19.8751827 9.67823769 19.68230192 17.18585625 19.625 26.375 C19.6549707 28.08042969 19.6549707 28.08042969 19.68554688 29.8203125 C19.68079503 38.0124996 18.61805178 43.55238516 13 49.8125 C5.98438965 53.71006131 -2.85639649 52.32103516 -10.5625 51.625 C-11.57699219 51.55023438 -12.59148437 51.47546875 -13.63671875 51.3984375 C-21.17550497 50.74461373 -25.35684302 49.17042839 -30.625 43.625 C-34.00580011 40.14136186 -37.53291586 36.94490446 -41.24609375 33.8203125 C-43.74593935 31.51372179 -43.83417654 30.2178451 -44.3125 26.75 C-44.18850454 20.9842113 -40.74467444 18.22197733 -36.8125 14.375 C-35.79986955 13.33157097 -34.78961171 12.28583613 -33.78125 11.23828125 C-32.70966144 10.1367273 -31.63674166 9.03646679 -30.5625 7.9375 C-30.04333008 7.40479492 -29.52416016 6.87208984 -28.98925781 6.32324219 C-21.45385893 -1.22193657 -10.09453042 0.22399364 0 0 Z "
     fill="#DCE0E8"
     transform="translate(218.8125,-0.375)"
     id="path8"
     style="fill:#000000;fill-opacity:1" />
  <path
     d="M0 0 C3.76144071 1.11274138 6.06709694 3.33377392 8.73193359 6.12329102 C9.28461914 6.66920898 9.83730469 7.21512695 10.40673828 7.77758789 C12.0007458 9.36878411 13.55803926 10.98828936 15.10693359 12.62329102 C16.27095703 13.82985352 16.27095703 13.82985352 17.45849609 15.06079102 C23.97766279 22.14334248 23.5587056 29.28855863 23.99414062 38.53686523 C24.0978214 40.45473513 24.25416499 42.36956722 24.41552734 44.28344727 C24.74406003 50.01600748 24.70172936 53.74707683 20.98193359 58.31079102 C17.36263752 62.06681605 13.30809777 63.4188232 8.15014648 63.89794922 C4.82286853 63.92625635 1.4968486 63.94504927 -1.83056641 63.93579102 C-3.56209961 63.95996094 -3.56209961 63.95996094 -5.32861328 63.98461914 C-13.30296791 63.98919421 -18.59001923 63.49550596 -24.76806641 58.12329102 C-31.00975765 50.78012484 -27.88497656 36.91546652 -27.40478516 27.87719727 C-26.06499655 19.35777808 -21.68247415 14.65647773 -15.76806641 8.68579102 C-15.04619141 7.90655273 -14.32431641 7.12731445 -13.58056641 6.32446289 C-9.3545704 2.03455057 -6.22040355 -0.61961314 0 0 Z M-12.08056641 14.06079102 C-12.70898438 14.65311523 -13.33740234 15.24543945 -13.98486328 15.85571289 C-21.05249622 22.92334583 -21.25277684 30.78673029 -21.26806641 40.37329102 C-21.29255859 41.19700195 -21.31705078 42.02071289 -21.34228516 42.86938477 C-21.36144264 46.834983 -21.20437288 49.08596752 -19.18212891 52.57641602 C-14.12508149 57.09841746 -9.06599906 56.98819696 -2.58056641 56.99829102 C-1.76394531 57.0227832 -0.94732422 57.04727539 -0.10595703 57.07250977 C5.69395913 57.10023845 10.33482654 56.05734949 15.10693359 52.62329102 C17.16314432 49.53897492 17.35684667 48.9018442 17.33740234 45.42016602 C17.33546875 44.60418945 17.33353516 43.78821289 17.33154297 42.94750977 C17.31929687 42.09801758 17.30705078 41.24852539 17.29443359 40.37329102 C17.29378906 39.53926758 17.29314453 38.70524414 17.29248047 37.84594727 C17.22425075 28.18765106 16.36040596 23.11301229 9.52099609 16.00219727 C8.72435547 15.2171582 7.92771484 14.43211914 7.10693359 13.62329102 C6.45466797 12.97231445 5.80240234 12.32133789 5.13037109 11.65063477 C1.91554651 8.62991834 1.91554651 8.62991834 -2.14697266 7.07250977 C-6.56905368 7.95944209 -8.9896528 10.91820069 -12.08056641 14.06079102 Z "
     fill="#52F5F7"
     transform="translate(81.89306640625,67.376708984375)"
     id="path9"
     style="fill:#4d4d4d;fill-opacity:1" />
  <path
     d="M0 0 C1.3610083 -0.05716187 1.3610083 -0.05716187 2.74951172 -0.11547852 C7.26638378 -0.17176223 9.66201232 0.06672976 13.63671875 2.3984375 C19.8751827 9.67823769 19.68230192 17.18585625 19.625 26.375 C19.6549707 28.08042969 19.6549707 28.08042969 19.68554688 29.8203125 C19.68079503 38.0124996 18.61805178 43.55238516 13 49.8125 C5.98438965 53.71006131 -2.85639649 52.32103516 -10.5625 51.625 C-11.57699219 51.55023438 -12.59148437 51.47546875 -13.63671875 51.3984375 C-21.17550497 50.74461373 -25.35684302 49.17042839 -30.625 43.625 C-34.00580011 40.14136186 -37.53291586 36.94490446 -41.24609375 33.8203125 C-43.74593935 31.51372179 -43.83417654 30.2178451 -44.3125 26.75 C-44.18850454 20.9842113 -40.74467444 18.22197733 -36.8125 14.375 C-35.79986955 13.33157097 -34.78961171 12.28583613 -33.78125 11.23828125 C-32.70966144 10.1367273 -31.63674166 9.03646679 -30.5625 7.9375 C-30.04333008 7.40479492 -29.52416016 6.87208984 -28.98925781 6.32324219 C-21.45385893 -1.22193657 -10.09453042 0.22399364 0 0 Z M-9.2890625 6.37109375 C-17.3412107 6.48686609 -17.3412107 6.48686609 -24.125 10.375 C-25.3716706 11.69198174 -26.59977704 13.0266931 -27.8125 14.375 C-28.63105469 15.11878906 -29.44960937 15.86257812 -30.29296875 16.62890625 C-35.11901266 20.70508922 -35.11901266 20.70508922 -37.3125 26.37109375 C-36.68954699 30.11367861 -35.56583028 31.30770555 -32.8125 33.875 C-31.69875 34.94234375 -31.69875 34.94234375 -30.5625 36.03125 C-29.20125 37.19140625 -29.20125 37.19140625 -27.8125 38.375 C-27.26674316 38.89344482 -26.72098633 39.41188965 -26.15869141 39.94604492 C-20.28748537 45.05900824 -14.78500365 45.4868617 -7.1875 45.6875 C-6.08148438 45.76677734 -4.97546875 45.84605469 -3.8359375 45.92773438 C2.05308194 46.24142763 2.05308194 46.24142763 7.26074219 43.89599609 C13.57650807 36.74980304 12.51415602 28.34479781 12.1875 19.375 C11.77400259 14.76552066 10.7155932 12.00871184 7.6875 8.375 C2.58568882 4.72033718 -3.37561196 6.37773808 -9.2890625 6.37109375 Z "
     fill="#52F5F7"
     transform="translate(218.8125,67.625)"
     id="path10"
     style="fill:#4d4d4d;fill-opacity:1" />
  <path
     d="M0 0 C1.31859009 0.00628418 1.31859009 0.00628418 2.66381836 0.01269531 C4.05032593 0.04508301 4.05032593 0.04508301 5.46484375 0.078125 C6.88132202 0.09891113 6.88132202 0.09891113 8.32641602 0.12011719 C11.01936624 0.16930349 13.71029659 0.24370173 16.40234375 0.328125 C18.19285156 0.37453125 18.19285156 0.37453125 20.01953125 0.421875 C29.77569728 0.96238281 35.01086816 6.49518854 41.77734375 13.078125 C42.51339844 13.75617188 43.24945313 14.43421875 44.0078125 15.1328125 C49.87523751 20.85872262 49.87523751 20.85872262 50.05078125 25.609375 C49.42516957 29.19722028 49.15596309 30.57450566 46.65234375 33.078125 C45.69134766 34.04878906 45.69134766 34.04878906 44.7109375 35.0390625 C43.94910156 35.79445312 43.18726563 36.54984375 42.40234375 37.328125 C41.49257199 38.35773683 40.58793907 39.39190397 39.6875 40.4296875 C34.39342597 46.3717803 30.25759275 50.63209258 21.95703125 51.2265625 C20.19746094 51.27683594 20.19746094 51.27683594 18.40234375 51.328125 C16.73777057 51.45984399 15.07373226 51.59842167 13.41015625 51.7421875 C11.61616268 51.8786941 9.82188316 52.01149223 8.02734375 52.140625 C7.17076172 52.20660889 6.31417969 52.27259277 5.43164062 52.34057617 C0.25486268 52.61514841 -3.12544367 52.28019248 -7.59765625 49.328125 C-14.50314271 43.02953402 -14.32260626 35.23361009 -14.73046875 26.4765625 C-14.90202965 17.7759742 -14.2424257 10.3010755 -8.59765625 3.328125 C-5.68036038 0.72999882 -3.89726904 -0.04617334 0 0 Z M-2.84765625 8.578125 C-6.73232931 14.68261124 -6.96331053 19.03495855 -6.97265625 26.203125 C-6.99714844 27.18410156 -7.02164063 28.16507813 -7.046875 29.17578125 C-7.07134522 35.219925 -6.66871673 38.75736756 -2.59765625 43.328125 C1.92661108 46.34430322 6.09331947 45.50722461 11.40234375 45.328125 C13.16191406 45.33585937 13.16191406 45.33585937 14.95703125 45.34375 C23.0081515 45.19289247 23.0081515 45.19289247 29.77734375 41.265625 C31.00524959 39.97141755 32.21314252 38.65798444 33.40234375 37.328125 C34.13582031 36.6578125 34.86929688 35.9875 35.625 35.296875 C38.79697905 32.38782895 41.06342387 30.15121615 42.71484375 26.140625 C42.27333262 22.16702481 40.27506076 21.04480307 37.40234375 18.328125 C36.54253906 17.45671875 35.68273437 16.5853125 34.796875 15.6875 C33.94480469 14.82640625 33.09273437 13.9653125 32.21484375 13.078125 C31.35503906 12.20671875 30.49523437 11.3353125 29.609375 10.4375 C25.21985698 6.24220845 20.23231549 6.69509472 14.40234375 6.328125 C13.19320312 6.24949219 11.9840625 6.17085938 10.73828125 6.08984375 C3.51029468 5.66121288 3.51029468 5.66121288 -2.84765625 8.578125 Z "
     fill="#52F5F7"
     transform="translate(122.59765625,67.671875)"
     id="path11"
     style="fill:#4d4d4d;fill-opacity:1" />
  <path
     d="M0 0 C1.70542969 -0.0299707 1.70542969 -0.0299707 3.4453125 -0.06054688 C11.6374996 -0.05579503 17.17738516 1.00694822 23.4375 6.625 C27.33506131 13.64061035 25.94603516 22.48139649 25.25 30.1875 C25.17523438 31.20199219 25.10046875 32.21648437 25.0234375 33.26171875 C24.36961373 40.80050497 22.79542839 44.98184302 17.25 50.25 C13.76636186 53.63080011 10.56990446 57.15791586 7.4453125 60.87109375 C5.13872179 63.37093935 3.8428451 63.45917654 0.375 63.9375 C-5.3907887 63.81350454 -8.15302267 60.36967444 -12 56.4375 C-13.04342903 55.42486955 -14.08916387 54.41461171 -15.13671875 53.40625 C-16.2382727 52.33466144 -17.33853321 51.26174166 -18.4375 50.1875 C-18.97020508 49.66833008 -19.50291016 49.14916016 -20.05175781 48.61425781 C-27.59693657 41.07885893 -26.15100636 29.71953042 -26.375 19.625 C-26.41310791 18.71766113 -26.45121582 17.81032227 -26.49047852 16.87548828 C-26.54676223 12.35861622 -26.30827024 9.96298768 -23.9765625 5.98828125 C-16.69676231 -0.2501827 -9.18914375 -0.05730192 0 0 Z M-18.859375 13.41015625 C-20.9893023 17.1958832 -20.23076534 21.21618284 -20 25.4375 C-19.95746094 26.54867187 -19.91492188 27.65984375 -19.87109375 28.8046875 C-19.34169071 38.73944237 -16.52098303 43.29241285 -9.6875 50.25 C-9.13126953 50.84748047 -8.57503906 51.44496094 -8.00195312 52.06054688 C-5.28117505 54.832003 -3.74031637 56.28722407 0.13671875 57.07421875 C5.544845 55.87159313 8.47784051 51.4691147 12 47.4375 C12.61875 46.74527344 13.2375 46.05304688 13.875 45.33984375 C19.40733417 38.65050701 19.21023231 31.13068391 19.375 22.75 C19.41238281 22.01716797 19.44976562 21.28433594 19.48828125 20.52929688 C19.55218303 16.59223725 19.20265282 14.70281049 16.7890625 11.54296875 C11.01080821 7.18095325 6.0963069 7.07274589 -0.9375 7.0625 C-2.25911133 7.02576172 -2.25911133 7.02576172 -3.60742188 6.98828125 C-10.33638835 6.9580387 -14.12936013 8.39196821 -18.859375 13.41015625 Z "
     fill="#53F5F7"
     transform="translate(26,67.5625)"
     id="path12"
     style="fill:#4d4d4d;fill-opacity:1" />
  <path
     d="M0 0 C3.454913 0.98019514 5.72540792 2.99161129 8.13378906 5.52514648 C8.63692627 6.02151611 9.14006348 6.51788574 9.65844727 7.02929688 C11.15672458 8.5247053 12.61698011 10.04957095 14.07128906 11.58764648 C14.89886719 12.44358398 15.72644531 13.29952148 16.57910156 14.18139648 C24.08260819 22.24968318 23.58079734 30.01566332 24.07128906 40.58764648 C24.12671875 41.75682617 24.18214844 42.92600586 24.23925781 44.13061523 C24.26632813 45.16831055 24.29339844 46.20600586 24.32128906 47.27514648 C24.34707031 48.18651367 24.37285156 49.09788086 24.39941406 50.03686523 C23.83341107 54.43686468 21.51736183 57.57334831 18.13378906 60.33764648 C12.14585676 64.73694369 5.5137257 63.84073759 -1.67871094 63.90014648 C-2.83371094 63.92915039 -3.98871094 63.9581543 -5.17871094 63.98803711 C-13.51407605 64.04988628 -18.86210782 63.02861835 -25.36621094 57.52514648 C-31.04470349 50.48381572 -27.89122703 36.32656041 -27.44042969 27.84155273 C-26.10064108 19.32213355 -21.71811868 14.6208332 -15.80371094 8.65014648 C-15.08183594 7.8709082 -14.35996094 7.09166992 -13.61621094 6.28881836 C-9.36068772 1.96893225 -6.25444387 -0.6242244 0 0 Z M-12.05371094 10.15014648 C-12.57360596 10.70444336 -13.09350098 11.25874023 -13.62915039 11.82983398 C-15.08281922 13.39853805 -16.50627716 14.99068752 -17.92871094 16.58764648 C-18.5384375 17.22573242 -19.14816406 17.86381836 -19.77636719 18.52124023 C-24.06448231 23.53445938 -23.82092694 29.32898876 -23.92871094 35.58764648 C-23.97898438 36.88573242 -24.02925781 38.18381836 -24.08105469 39.52124023 C-24.61397173 48.12190861 -24.61397173 48.12190861 -20.92871094 55.58764648 C-14.92333985 60.23722331 -9.40695746 60.2275361 -1.99121094 60.15014648 C-0.94513672 60.17399414 0.1009375 60.1978418 1.17871094 60.22241211 C7.86566027 60.20980315 13.10932514 59.36486067 18.07128906 54.58764648 C19.78222938 51.84315855 20.32129586 49.78974581 20.30175781 46.57592773 C20.30103271 45.82230957 20.30030762 45.06869141 20.29956055 44.29223633 C20.28610596 43.50284668 20.27265137 42.71345703 20.25878906 41.90014648 C20.24726807 41.09013184 20.23574707 40.28011719 20.22387695 39.44555664 C20.19556515 37.85721625 20.16120202 36.26896954 20.12011719 34.6809082 C20.08128384 33.01612246 20.07794925 31.35051721 20.08691406 29.68530273 C19.85434417 23.0686894 16.52028863 19.97420396 12.07128906 15.58764648 C11.19214844 14.61569336 10.31300781 13.64374023 9.40722656 12.64233398 C8.4631986 11.62291377 7.51788898 10.60467891 6.57128906 9.58764648 C5.69472656 8.63889648 4.81816406 7.69014648 3.91503906 6.71264648 C1.18208055 4.34699941 1.18208055 4.34699941 -2.38964844 3.92749023 C-6.90287663 4.76936172 -9.08180195 6.8662477 -12.05371094 10.15014648 Z "
     fill="#596071"
     transform="translate(81.9287109375,-0.587646484375)"
     id="path13"
     style="fill:#4d4d4d;fill-opacity:1" />
  <path
     d="M0 0 C1.31859009 0.00628418 1.31859009 0.00628418 2.66381836 0.01269531 C4.05032593 0.04508301 4.05032593 0.04508301 5.46484375 0.078125 C6.88132202 0.09891113 6.88132202 0.09891113 8.32641602 0.12011719 C11.01936624 0.16930349 13.71029659 0.24370173 16.40234375 0.328125 C18.19285156 0.37453125 18.19285156 0.37453125 20.01953125 0.421875 C29.77569728 0.96238281 35.01086816 6.49518854 41.77734375 13.078125 C42.51339844 13.75617187 43.24945313 14.43421875 44.0078125 15.1328125 C49.87523751 20.85872262 49.87523751 20.85872262 50.05078125 25.609375 C49.42516957 29.19722028 49.15596309 30.57450566 46.65234375 33.078125 C45.69134766 34.04878906 45.69134766 34.04878906 44.7109375 35.0390625 C43.94910156 35.79445312 43.18726563 36.54984375 42.40234375 37.328125 C41.49257199 38.35773683 40.58793907 39.39190397 39.6875 40.4296875 C34.39342597 46.3717803 30.25759275 50.63209258 21.95703125 51.2265625 C20.19746094 51.27683594 20.19746094 51.27683594 18.40234375 51.328125 C16.73777057 51.45984399 15.07373226 51.59842167 13.41015625 51.7421875 C11.61616268 51.8786941 9.82188316 52.01149223 8.02734375 52.140625 C7.17076172 52.20660889 6.31417969 52.27259277 5.43164062 52.34057617 C0.25486268 52.61514841 -3.12544367 52.28019248 -7.59765625 49.328125 C-14.50314271 43.02953402 -14.32260626 35.23361009 -14.73046875 26.4765625 C-14.90202965 17.7759742 -14.2424257 10.3010755 -8.59765625 3.328125 C-5.68036038 0.72999882 -3.89726904 -0.04617334 0 0 Z M-7.59765625 9.328125 C-10.66687867 14.37220762 -9.96610373 19.91044844 -9.97265625 25.640625 C-9.99714844 26.75630859 -10.02164063 27.87199219 -10.046875 29.02148438 C-10.07049912 35.66379967 -9.77635593 40.04413786 -5.59765625 45.328125 C0.0065232 49.41575268 5.11881092 48.59164763 11.77734375 48.265625 C13.44410156 48.22405273 13.44410156 48.22405273 15.14453125 48.18164062 C25.76931182 47.73261716 31.01311793 44.23639622 38.27734375 36.703125 C38.85742188 36.11789063 39.4375 35.53265625 40.03515625 34.9296875 C44.058062 30.89855301 44.058062 30.89855301 45.91796875 25.6875 C45.12407555 20.51516549 41.8610762 18.06748695 38.15234375 14.578125 C37.47042969 13.90652344 36.78851563 13.23492187 36.0859375 12.54296875 C29.65201364 6.30893378 25.27145045 4.78615398 16.40234375 4.328125 C15.66306641 4.28880859 14.92378906 4.24949219 14.16210938 4.20898438 C11.63807496 4.09088919 9.11579627 4.01703667 6.58984375 3.953125 C5.76540771 3.91493652 4.94097168 3.87674805 4.09155273 3.83740234 C-1.54994734 3.76038135 -4.03946509 4.59742513 -7.59765625 9.328125 Z "
     fill="#5A6171"
     transform="translate(122.59765625,-0.328125)"
     id="path14"
     style="fill:#4d4d4d;fill-opacity:1" />
  <path
     d="M0 0 C1.3610083 -0.05716187 1.3610083 -0.05716187 2.74951172 -0.11547852 C7.26638378 -0.17176223 9.66201232 0.06672976 13.63671875 2.3984375 C19.8751827 9.67823769 19.68230192 17.18585625 19.625 26.375 C19.6549707 28.08042969 19.6549707 28.08042969 19.68554688 29.8203125 C19.68079503 38.0124996 18.61805178 43.55238516 13 49.8125 C5.98438965 53.71006131 -2.85639649 52.32103516 -10.5625 51.625 C-11.57699219 51.55023438 -12.59148437 51.47546875 -13.63671875 51.3984375 C-21.17550497 50.74461373 -25.35684302 49.17042839 -30.625 43.625 C-34.00580011 40.14136186 -37.53291586 36.94490446 -41.24609375 33.8203125 C-43.74593935 31.51372179 -43.83417654 30.2178451 -44.3125 26.75 C-44.18850454 20.9842113 -40.74467444 18.22197733 -36.8125 14.375 C-35.79986955 13.33157097 -34.78961171 12.28583613 -33.78125 11.23828125 C-32.70966144 10.1367273 -31.63674166 9.03646679 -30.5625 7.9375 C-30.04333008 7.40479492 -29.52416016 6.87208984 -28.98925781 6.32324219 C-21.45385893 -1.22193657 -10.09453042 0.22399364 0 0 Z M-27.8125 10.375 C-28.34689697 10.86734131 -28.88129395 11.35968262 -29.43188477 11.86694336 C-30.91009221 13.24580321 -32.33158633 14.68470337 -33.75 16.125 C-34.23017578 16.60582031 -34.71035156 17.08664063 -35.20507812 17.58203125 C-38.05380399 20.46691866 -39.6446649 22.11623679 -40.1875 26.1875 C-39.68349433 30.47154822 -37.92714431 31.44938238 -34.8125 34.375 C-33.86693672 35.3240011 -32.9255606 36.27719141 -31.98828125 37.234375 C-31.03386663 38.19792902 -30.07943948 39.16147062 -29.125 40.125 C-28.63966797 40.61871094 -28.15433594 41.11242188 -27.65429688 41.62109375 C-20.5877695 48.7363558 -8.83456581 48.39011667 0.875 48.6875 C4.99752596 48.55451529 7.82679163 47.93553971 11.1875 45.375 C15.43977786 38.66169686 15.80287824 33.08610518 15.6875 25.25 C15.70296875 24.19167969 15.7184375 23.13335938 15.734375 22.04296875 C15.70316939 15.82525165 15.34485973 12.08968694 11.1875 7.375 C10.77459717 6.8399585 10.36169434 6.30491699 9.9362793 5.75366211 C5.94419229 2.60647304 -0.64387654 3.81986893 -5.5 3.8125 C-6.75490234 3.77576172 -8.00980469 3.73902344 -9.30273438 3.70117188 C-17.40700457 3.66276301 -22.08343991 4.55961045 -27.8125 10.375 Z "
     fill="#5A6171"
     transform="translate(218.8125,-0.375)"
     id="path15"
     style="fill:#4d4d4d;fill-opacity:1" />
  <path
     d="M0 0 C1.70542969 -0.0299707 1.70542969 -0.0299707 3.4453125 -0.06054688 C11.6374996 -0.05579503 17.17738516 1.00694822 23.4375 6.625 C27.33506131 13.64061035 25.94603516 22.48139649 25.25 30.1875 C25.17523438 31.20199219 25.10046875 32.21648438 25.0234375 33.26171875 C24.36961373 40.80050497 22.79542839 44.98184302 17.25 50.25 C13.76636186 53.63080011 10.56990446 57.15791586 7.4453125 60.87109375 C5.13872179 63.37093935 3.8428451 63.45917654 0.375 63.9375 C-5.3907887 63.81350454 -8.15302267 60.36967444 -12 56.4375 C-13.04342903 55.42486955 -14.08916387 54.41461171 -15.13671875 53.40625 C-16.2382727 52.33466144 -17.33853321 51.26174166 -18.4375 50.1875 C-18.97020508 49.66833008 -19.50291016 49.14916016 -20.05175781 48.61425781 C-27.59693657 41.07885893 -26.15100636 29.71953042 -26.375 19.625 C-26.41310791 18.71766113 -26.45121582 17.81032227 -26.49047852 16.87548828 C-26.54676223 12.35861622 -26.30827024 9.96298768 -23.9765625 5.98828125 C-16.69676231 -0.2501827 -9.18914375 -0.05730192 0 0 Z M-19 8.4375 C-19.5364917 8.85418945 -20.0729834 9.27087891 -20.62573242 9.70019531 C-23.70236507 13.58957494 -22.46477586 19.95141941 -22.4375 24.6875 C-22.45748047 25.90308594 -22.47746094 27.11867188 -22.49804688 28.37109375 C-22.4930056 37.61679292 -21.166492 42.15210494 -14.8359375 48.9296875 C-13.69001767 50.06514231 -12.53624738 51.19272574 -11.375 52.3125 C-10.78976562 52.89257812 -10.20453125 53.47265625 -9.6015625 54.0703125 C-5.53152726 58.18713896 -5.53152726 58.18713896 -0.1875 59.8125 C4.0929356 59.30891934 5.07398101 57.54424369 8 54.4375 C8.93199219 53.5403125 9.86398438 52.643125 10.82421875 51.71875 C12.24154297 50.34203125 12.24154297 50.34203125 13.6875 48.9375 C14.17283203 48.47730469 14.65816406 48.01710937 15.15820312 47.54296875 C21.67642149 41.15961007 21.47062187 34.60832205 21.8125 25.9375 C21.87630859 24.80957031 21.94011719 23.68164062 22.00585938 22.51953125 C22.07450195 20.88564453 22.07450195 20.88564453 22.14453125 19.21875 C22.18940674 18.22939453 22.23428223 17.24003906 22.28051758 16.22070312 C21.88161382 12.26291125 20.4464387 9.6414822 17.38330078 7.09179688 C11.29616742 3.95068524 5.6331744 3.83799314 -1.125 3.9375 C-2.18332031 3.92203125 -3.24164062 3.9065625 -4.33203125 3.890625 C-10.54974835 3.92183061 -14.28531306 4.28014027 -19 8.4375 Z "
     fill="#5A6172"
     transform="translate(26,-0.4375)"
     id="path16"
     style="fill:#4d4d4d;fill-opacity:1" />
  <path
     d="M0 0 C1.19556519 0.0014502 1.19556519 0.0014502 2.4152832 0.00292969 C3.25663818 0.01614258 4.09799316 0.02935547 4.96484375 0.04296875 C5.82231201 0.05231445 6.67978027 0.06166016 7.56323242 0.07128906 C21.11489458 0.27184492 27.87827536 1.88556902 37.77734375 11.60546875 C38.3703125 12.1571875 38.96328125 12.70890625 39.57421875 13.27734375 C42.35965208 16.01143269 43.76605398 17.47855716 44.4765625 21.3984375 C43.83170649 24.57884977 43.07082321 25.84873076 40.83984375 28.16796875 C39.87884766 29.17923828 39.87884766 29.17923828 38.8984375 30.2109375 C38.23972656 30.87738281 37.58101562 31.54382813 36.90234375 32.23046875 C36.31582031 32.86597656 35.72929687 33.50148437 35.125 34.15625 C27.48131374 42.25058443 21.30149444 43.91125935 10.33984375 44.23046875 C8.67405273 44.32521484 8.67405273 44.32521484 6.97460938 44.421875 C2.13838774 44.6013159 -1.23415784 44.62134507 -5.6875 42.60546875 C-11.08212353 37.28953503 -11.49985909 32.45681466 -11.55664062 25.15820312 C-11.54955078 24.04767578 -11.54246094 22.93714844 -11.53515625 21.79296875 C-11.55513672 20.68630859 -11.57511719 19.57964844 -11.59570312 18.43945312 C-11.59175101 11.82756231 -11.14381991 7.54974719 -7.09765625 2.23046875 C-4.03813235 0.19078615 -3.43949775 -0.01972056 0 0 Z M-4.265625 4.41015625 C-8.22632203 10.50743399 -8.49048323 15.45778558 -8.53515625 22.60546875 C-8.56802734 23.52585937 -8.60089844 24.44625 -8.63476562 25.39453125 C-8.68663185 31.99568735 -7.5224666 35.29331193 -3.09765625 40.23046875 C0.81305204 42.1858229 5.61686266 41.32751779 9.90234375 41.23046875 C11.66384766 41.24013672 11.66384766 41.24013672 13.4609375 41.25 C21.50972134 41.09362067 21.50972134 41.09362067 28.27734375 37.16796875 C29.50524959 35.8737613 30.71314252 34.56032819 31.90234375 33.23046875 C32.63582031 32.56015625 33.36929688 31.88984375 34.125 31.19921875 C37.29697905 28.2901727 39.56342387 26.0535599 41.21484375 22.04296875 C40.77333262 18.06936856 38.77506076 16.94714682 35.90234375 14.23046875 C35.04253906 13.3590625 34.18273437 12.48765625 33.296875 11.58984375 C32.44480469 10.72875 31.59273437 9.86765625 30.71484375 8.98046875 C29.85503906 8.1090625 28.99523437 7.23765625 28.109375 6.33984375 C23.4588683 1.89511168 17.73898517 2.68543945 11.58984375 2.35546875 C10.44837891 2.27039063 9.30691406 2.1853125 8.13085938 2.09765625 C1.53104243 1.65340228 1.53104243 1.65340228 -4.265625 4.41015625 Z "
     fill="#A2AAB6"
     transform="translate(124.09765625,3.76953125)"
     id="path17"
     style="fill:#121212;fill-opacity:1" />
  <path
     d="M0 0 C3.32637244 2.44715673 6.06471677 5.3612135 8.875 8.375 C9.64585938 9.1690625 10.41671875 9.963125 11.2109375 10.78125 C19.53639362 19.42917097 18.98543831 27.04237538 19.3125 38.875 C19.36857422 40.69644531 19.36857422 40.69644531 19.42578125 42.5546875 C18.90352266 46.78066983 17.76577451 48.78014311 15 52 C9.58261376 55.99754086 3.51984258 55.48057506 -2.9375 55.4375 C-3.99646484 55.45748047 -5.05542969 55.47746094 -6.14648438 55.49804688 C-12.63352409 55.49400006 -16.82208259 55.03339771 -22 51 C-25.47367589 46.95443844 -25.40407412 42.9246002 -25.25 37.8125 C-25.23251709 37.05437012 -25.21503418 36.29624023 -25.19702148 35.51513672 C-25.15740692 34.01427392 -25.11067012 32.51357896 -25.05615234 31.01318359 C-25.01003203 29.35967006 -25.03603938 27.70429836 -25.08203125 26.05078125 C-25.01812003 18.11300822 -20.21721021 13.54689174 -15 8 C-14.29746094 7.18402344 -13.59492187 6.36804688 -12.87109375 5.52734375 C-8.71075945 0.9110824 -6.5570844 -1.25632662 0 0 Z M-13.1875 9.4375 C-13.81591797 10.02982422 -14.44433594 10.62214844 -15.09179688 11.23242188 C-22.15942982 18.30005482 -22.35971043 26.16343927 -22.375 35.75 C-22.39949219 36.57371094 -22.42398438 37.39742187 -22.44921875 38.24609375 C-22.46837623 42.21169199 -22.31130647 44.4626765 -20.2890625 47.953125 C-15.23201508 52.47512644 -10.17293266 52.36490594 -3.6875 52.375 C-2.87087891 52.39949219 -2.05425781 52.42398438 -1.21289062 52.44921875 C4.58702553 52.47694743 9.22789295 51.43405848 14 48 C16.05621073 44.91568391 16.24991308 44.27855318 16.23046875 40.796875 C16.22853516 39.98089844 16.22660156 39.16492188 16.22460938 38.32421875 C16.21236328 37.47472656 16.20011719 36.62523437 16.1875 35.75 C16.18685547 34.91597656 16.18621094 34.08195312 16.18554688 33.22265625 C16.11731715 23.56436004 15.25347237 18.48972127 8.4140625 11.37890625 C7.61742188 10.59386719 6.82078125 9.80882813 6 9 C5.34773438 8.34902344 4.69546875 7.69804688 4.0234375 7.02734375 C0.80861291 4.00662733 0.80861291 4.00662733 -3.25390625 2.44921875 C-7.67598728 3.33615108 -10.09658639 6.29490968 -13.1875 9.4375 Z "
     fill="#1DD7D9"
     transform="translate(83,72)"
     id="path18"
     style="fill:#121212;fill-opacity:1" />
  <path
     d="M0 0 C1.258125 -0.04060547 2.51625 -0.08121094 3.8125 -0.12304688 C12.80509526 -0.15638807 12.80509526 -0.15638807 16.17578125 2.22412109 C21.49797733 8.3417886 21.21322632 13.58632028 21.25 21.4375 C21.270625 22.52289063 21.29125 23.60828125 21.3125 24.7265625 C21.34988334 32.37145526 20.64570066 36.73313426 15.421875 42.56640625 C11.33854134 45.70946548 7.15539933 45.09501123 2.25 44.625 C1.354021 44.55120117 0.45804199 44.47740234 -0.46508789 44.40136719 C-2.2170247 44.24876112 -3.96791147 44.08342734 -5.71728516 43.90380859 C-7.49757877 43.73510911 -9.286471 43.65644162 -11.07421875 43.61328125 C-19.29563053 43.00177128 -24.42783404 35.95535581 -29.62475586 30.18969727 C-31.00319696 28.6441757 -31.00319696 28.6441757 -32.63500977 27.16381836 C-34 25.6875 -34 25.6875 -34.625 23 C-33.67085166 17.94301382 -30.54302374 15.26512358 -27 11.6875 C-26.401875 11.05199219 -25.80375 10.41648437 -25.1875 9.76171875 C-23.49579403 7.99826632 -21.83796818 6.29907962 -20 4.6875 C-19.22785156 3.97464844 -18.45570313 3.26179688 -17.66015625 2.52734375 C-12.50947286 -0.80286019 -5.89243009 -0.00905599 0 0 Z M-3.4765625 2.68359375 C-11.5287107 2.79936609 -11.5287107 2.79936609 -18.3125 6.6875 C-19.5591706 8.00448174 -20.78727704 9.3391931 -22 10.6875 C-22.81855469 11.43128906 -23.63710937 12.17507812 -24.48046875 12.94140625 C-29.30651266 17.01758922 -29.30651266 17.01758922 -31.5 22.68359375 C-30.87704699 26.42617861 -29.75333028 27.62020555 -27 30.1875 C-25.88625 31.25484375 -25.88625 31.25484375 -24.75 32.34375 C-23.38875 33.50390625 -23.38875 33.50390625 -22 34.6875 C-21.45424316 35.20594482 -20.90848633 35.72438965 -20.34619141 36.25854492 C-14.47498537 41.37150824 -8.97250365 41.7993617 -1.375 42 C-0.26898438 42.07927734 0.83703125 42.15855469 1.9765625 42.24023438 C7.86558194 42.55392763 7.86558194 42.55392763 13.07324219 40.20849609 C19.38900807 33.06230304 18.32665602 24.65729781 18 15.6875 C17.58650259 11.07802066 16.5280932 8.32121184 13.5 4.6875 C8.39818882 1.03283718 2.43688804 2.69023808 -3.4765625 2.68359375 Z "
     fill="#1DD6D8"
     transform="translate(213,71.3125)"
     id="path19"
     style="fill:#121212;fill-opacity:1" />
  <path
     d="M0 0 C1.06863281 -0.02900391 2.13726563 -0.05800781 3.23828125 -0.08789062 C9.56191609 -0.13844859 15.34347247 0.08085241 20.375 4.3125 C23.12288776 7.99999827 23.73330369 10.4993967 23.5546875 15.05859375 C23.5134375 16.14333984 23.4721875 17.22808594 23.4296875 18.34570312 C23.34074219 20.03083008 23.34074219 20.03083008 23.25 21.75 C23.21390625 22.86955078 23.1778125 23.98910156 23.140625 25.14257812 C22.71769523 34.51937621 20.78970342 39.3363271 13.9375 45.9375 C13.22110352 46.63359375 13.22110352 46.63359375 12.49023438 47.34375 C11.12313562 48.67146731 9.74920859 49.99214284 8.375 51.3125 C7.65699219 52.06917969 6.93898438 52.82585938 6.19921875 53.60546875 C4.375 55.3125 4.375 55.3125 1.625 56 C-3.36069093 54.94533461 -6.07396431 51.82232445 -9.625 48.3125 C-10.26050781 47.72597656 -10.89601563 47.13945313 -11.55078125 46.53515625 C-17.54234846 40.87716666 -20.75090928 36.29372126 -21.26171875 27.93359375 C-21.30001674 25.53930895 -21.31635188 23.14458798 -21.3125 20.75 C-21.35310547 19.54408203 -21.39371094 18.33816406 -21.43554688 17.09570312 C-21.46881898 8.48773311 -21.46881898 8.48773311 -19.08837891 5.17236328 C-12.99289263 -0.13211777 -7.83641147 0.06938971 0 0 Z M-17.484375 9.21484375 C-19.81387303 13.49888636 -18.85895655 18.5763065 -18.625 23.3125 C-18.58246094 24.32054688 -18.53992188 25.32859375 -18.49609375 26.3671875 C-17.92333421 35.36073097 -14.4875888 39.8377643 -8.3125 46.125 C-7.75626953 46.72248047 -7.20003906 47.31996094 -6.62695312 47.93554688 C-3.92949797 50.68324566 -2.3519633 52.1550218 1.4765625 52.984375 C7.23963874 51.64845975 10.58314299 46.5846589 14.375 42.3125 C14.9421875 41.72984375 15.509375 41.1471875 16.09375 40.546875 C20.65602357 35.29495543 20.24600169 28.96729506 20.375 22.3125 C20.44847656 21.21292969 20.52195313 20.11335938 20.59765625 18.98046875 C20.95147397 12.68228552 20.95147397 12.68228552 18.1875 7.1875 C12.28433384 3.25205589 7.37007389 2.94759843 0.4375 2.9375 C-0.88411133 2.90076172 -0.88411133 2.90076172 -2.23242188 2.86328125 C-8.96364975 2.83302854 -12.67828388 4.2976875 -17.484375 9.21484375 Z "
     fill="#A1AAB6"
     transform="translate(24.625,3.6875)"
     id="path20"
     style="fill:#121212;fill-opacity:1" />
  <path
     d="M0 0 C1.26263672 -0.04511719 2.52527344 -0.09023438 3.82617188 -0.13671875 C12.88345441 -0.20363271 12.88345441 -0.20363271 16.24267578 2.15722656 C21.52255719 8.22964164 21.30598302 13.45568188 21.375 21.25 C21.40400391 22.31863281 21.43300781 23.38726563 21.46289062 24.48828125 C21.51783543 31.36060828 20.7895182 35.80026118 17.0625 41.625 C12.05871859 45.43740488 7.05855574 45.03125723 1.0625 44.625 C0.40685059 44.5930957 -0.24879883 44.56119141 -0.92431641 44.52832031 C-16.55384561 43.7006874 -16.55384561 43.7006874 -22.16015625 37.63671875 C-22.74667969 36.97285156 -23.33320313 36.30898438 -23.9375 35.625 C-25.56916113 34.1714335 -27.21531134 32.73398062 -28.875 31.3125 C-33.64789483 27.14542716 -33.64789483 27.14542716 -34.4375 23 C-33.67230576 17.83493888 -30.52285328 15.24417737 -26.9375 11.625 C-26.25429687 10.90441406 -25.57109375 10.18382812 -24.8671875 9.44140625 C-16.8553153 1.14013182 -11.45128765 0.05827627 0 0 Z M-2.5703125 2.62109375 C-11.09133345 2.64628561 -11.09133345 2.64628561 -18.3125 6.625 C-19.5394942 7.94118101 -20.74672752 9.27596029 -21.9375 10.625 C-22.75476563 11.36878906 -23.57203125 12.11257813 -24.4140625 12.87890625 C-29.22309264 16.94827731 -29.22309264 16.94827731 -31.47265625 22.5859375 C-30.43690353 28.46780331 -25.24502832 31.82982086 -20.9375 35.625 C-20.29683594 36.1921875 -19.65617188 36.759375 -18.99609375 37.34375 C-12.83518764 42.26103933 -4.81384338 41.85129173 2.75 42 C3.48283203 42.03738281 4.21566406 42.07476562 4.97070312 42.11328125 C9.00952988 42.1788348 10.803417 41.83137064 14 39.28515625 C19.75047012 31.86835672 18.68180637 22.03781752 17.8203125 13.1171875 C17.13822651 9.45619533 15.91950811 7.45759486 13.5 4.625 C8.09990036 1.48312384 3.41601788 2.62753066 -2.5703125 2.62109375 Z "
     fill="#A1A9B5"
     transform="translate(212.9375,3.375)"
     id="path21"
     style="fill:#121212;fill-opacity:1" />
  <path
     d="M0 0 C5.81244983 1.17811806 8.70297395 4.90526636 12.65234375 9.140625 C13.42320313 9.9346875 14.1940625 10.72875 14.98828125 11.546875 C22.87312031 19.73711276 22.86586899 26.93490381 23.08984375 37.953125 C23.11957275 38.72527344 23.14930176 39.49742188 23.17993164 40.29296875 C23.23402463 45.5769995 22.42889443 48.67806827 18.77734375 52.765625 C13.35995751 56.76316586 7.29718633 56.24620006 0.83984375 56.203125 C-0.21912109 56.22310547 -1.27808594 56.24308594 -2.36914062 56.26367188 C-8.85618034 56.25962506 -13.04473884 55.79902271 -18.22265625 51.765625 C-22.95651511 46.07922137 -21.47201385 38.71993152 -21.22265625 31.765625 C-21.238125 30.67765625 -21.25359375 29.5896875 -21.26953125 28.46875 C-21.1379071 20.00092966 -17.98148976 15.73810832 -12.22265625 9.765625 C-11.46855469 8.90066406 -10.71445313 8.03570312 -9.9375 7.14453125 C-4.3874727 1.04235715 -4.3874727 1.04235715 0 0 Z M-9.53515625 10.390625 C-10.46424805 11.33615234 -10.46424805 11.33615234 -11.41210938 12.30078125 C-18.06204757 19.24675362 -18.58592919 24.8722528 -18.59765625 34.265625 C-18.62214844 35.29816406 -18.64664063 36.33070312 -18.671875 37.39453125 C-18.69662835 43.38239459 -18.69662835 43.38239459 -16.51171875 48.859375 C-11.19600046 53.28611651 -5.99820935 53.13088773 0.65234375 53.140625 C1.96138672 53.17736328 1.96138672 53.17736328 3.296875 53.21484375 C9.32248564 53.24202696 12.86933968 52.31527807 17.77734375 48.765625 C20.85219285 44.15335134 20.22566894 39.50720933 20.27734375 34.078125 C20.31859375 33.01400391 20.35984375 31.94988281 20.40234375 30.85351562 C20.47749821 23.24882352 19.02724633 19.23005528 13.77734375 13.765625 C12.63458984 12.42177734 12.63458984 12.42177734 11.46875 11.05078125 C10.76621094 10.31730469 10.06367187 9.58382813 9.33984375 8.828125 C8.63988281 8.07660156 7.93992187 7.32507813 7.21875 6.55078125 C-0.1705967 1.14769094 -4.24874419 4.63292164 -9.53515625 10.390625 Z "
     fill="#A1A9B6"
     transform="translate(79.22265625,3.234375)"
     id="path22"
     style="fill:#121212;fill-opacity:1" />
  <path
     d="M0 0 C1.06863281 -0.02900391 2.13726563 -0.05800781 3.23828125 -0.08789062 C9.78577891 -0.14023839 15.03459573 0.26566594 20.375 4.3125 C23.33767274 7.4189918 23.53617324 9.94774206 23.51953125 14.078125 C23.42556362 15.90718501 23.31434458 17.73542559 23.1875 19.5625 C23.12079102 20.91794922 23.12079102 20.91794922 23.05273438 22.30078125 C22.49129689 31.93532568 21.94370122 38.99350119 14.5 45.625 C13.97019531 46.12322266 13.44039062 46.62144531 12.89453125 47.13476562 C11.39912448 48.53926057 9.88747331 49.92640045 8.375 51.3125 C7.64539063 52.075625 6.91578125 52.83875 6.1640625 53.625 C4.375 55.3125 4.375 55.3125 1.625 56 C-3.35546231 54.94644066 -6.08332042 51.82683071 -9.625 48.3125 C-10.27210937 47.69117188 -10.91921875 47.06984375 -11.5859375 46.4296875 C-20.25316624 37.98188227 -20.88912082 32.42802516 -21.125 20.4375 C-21.17914062 19.26574219 -21.23328125 18.09398437 -21.2890625 16.88671875 C-21.42353093 8.42481263 -21.42353093 8.42481263 -19.1015625 5.19042969 C-12.98805137 -0.12084165 -7.8584006 0.06958442 0 0 Z M-17.484375 9.28515625 C-19.6143023 13.0708832 -18.85576534 17.09118284 -18.625 21.3125 C-18.58246094 22.42367187 -18.53992188 23.53484375 -18.49609375 24.6796875 C-17.96669071 34.61444237 -15.14598303 39.16741285 -8.3125 46.125 C-7.75626953 46.72248047 -7.20003906 47.31996094 -6.62695312 47.93554688 C-3.90617505 50.707003 -2.36531637 52.16222407 1.51171875 52.94921875 C6.919845 51.74659313 9.85284051 47.3441147 13.375 43.3125 C13.99375 42.62027344 14.6125 41.92804688 15.25 41.21484375 C20.78233417 34.52550701 20.58523231 27.00568391 20.75 18.625 C20.78738281 17.89216797 20.82476562 17.15933594 20.86328125 16.40429688 C20.92718303 12.46723725 20.57765282 10.57781049 18.1640625 7.41796875 C12.38580821 3.05595325 7.4713069 2.94774589 0.4375 2.9375 C-0.88411133 2.90076172 -0.88411133 2.90076172 -2.23242188 2.86328125 C-8.96138835 2.8330387 -12.75436013 4.26696821 -17.484375 9.28515625 Z "
     fill="#1DD7D9"
     transform="translate(24.625,71.6875)"
     id="path23"
     style="fill:#121212;fill-opacity:1" />
  <path
     d="M0 0 C0.79688232 0.00080566 1.59376465 0.00161133 2.41479492 0.00244141 C3.67706909 0.02250244 3.67706909 0.02250244 4.96484375 0.04296875 C5.82376221 0.05376465 6.68268066 0.06456055 7.56762695 0.07568359 C9.26102372 0.10295763 10.95433191 0.13661892 12.64746094 0.17724609 C14.46384867 0.22011882 16.28079656 0.2388945 18.09765625 0.25 C24.61329816 0.52574033 28.19344771 2.85366484 32.90234375 7.23046875 C34.35833984 8.53371094 34.35833984 8.53371094 35.84375 9.86328125 C43.74386814 17.22129608 43.74386814 17.22129608 44.390625 21.33984375 C42.97814086 29.70174989 32.22321122 37.06708497 25.90234375 42.23046875 C20.63108939 43.98755354 15.04503339 43.54237666 9.52734375 43.60546875 C7.67882812 43.66154297 7.67882812 43.66154297 5.79296875 43.71875 C-3.27898506 43.80730486 -3.27898506 43.80730486 -7.32421875 40.95703125 C-11.52391877 34.50022372 -11.46393692 29.54302639 -11.47265625 21.91796875 C-11.49714844 20.80228516 -11.52164063 19.68660156 -11.546875 18.53710938 C-11.57054841 11.8809365 -11.18632343 7.58116137 -7.09765625 2.23046875 C-4.03813235 0.19078615 -3.43949775 -0.01972056 0 0 Z M-4.34765625 4.48046875 C-8.23232931 10.58495499 -8.46331053 14.9373023 -8.47265625 22.10546875 C-8.49714844 23.08644531 -8.52164063 24.06742188 -8.546875 25.078125 C-8.57134522 31.12226875 -8.16871673 34.65971131 -4.09765625 39.23046875 C0.42661108 42.24664697 4.59331947 41.40956836 9.90234375 41.23046875 C11.66191406 41.23820312 11.66191406 41.23820312 13.45703125 41.24609375 C21.5081515 41.09523622 21.5081515 41.09523622 28.27734375 37.16796875 C29.50524959 35.8737613 30.71314252 34.56032819 31.90234375 33.23046875 C32.63582031 32.56015625 33.36929688 31.88984375 34.125 31.19921875 C37.29697905 28.2901727 39.56342387 26.0535599 41.21484375 22.04296875 C40.77333262 18.06936856 38.77506076 16.94714682 35.90234375 14.23046875 C35.04253906 13.3590625 34.18273437 12.48765625 33.296875 11.58984375 C32.44480469 10.72875 31.59273437 9.86765625 30.71484375 8.98046875 C29.85503906 8.1090625 28.99523437 7.23765625 28.109375 6.33984375 C23.71985698 2.1445522 18.73231549 2.59743847 12.90234375 2.23046875 C11.69320312 2.15183594 10.4840625 2.07320313 9.23828125 1.9921875 C2.01029468 1.56355663 2.01029468 1.56355663 -4.34765625 4.48046875 Z "
     fill="#1CD7D9"
     transform="translate(124.09765625,71.76953125)"
     id="path24"
     style="fill:#121212;fill-opacity:1" />
  <path
     d="M0 0 C0.33 0 0.66 0 1 0 C1.25 7.625 1.25 7.625 -1 11 C-2.23076923 4.6 -2.23076923 4.6 -1.0625 1.5625 C-0.711875 1.046875 -0.36125 0.53125 0 0 Z "
     fill="#939BA8"
     transform="translate(46,30)"
     id="path36"
     style="fill:#121212;fill-opacity:1" />
</svg>
