<?xml version="1.0" encoding="UTF-8" standalone="no"?>
<svg
   version="1.1"
   width="224"
   height="108"
   id="svg11"
   sodipodi:docname="undefined - Imgur (3).svg"
   inkscape:export-filename="undefined - Imgur (3).png"
   inkscape:export-xdpi="96"
   inkscape:export-ydpi="96"
   inkscape:version="1.3 (0e150ed6c4, 2023-07-21)"
   xmlns:inkscape="http://www.inkscape.org/namespaces/inkscape"
   xmlns:sodipodi="http://sodipodi.sourceforge.net/DTD/sodipodi-0.dtd"
   xmlns="http://www.w3.org/2000/svg"
   xmlns:svg="http://www.w3.org/2000/svg">
  <defs
     id="defs11" />
  <sodipodi:namedview
     id="namedview11"
     pagecolor="#ffffff"
     bordercolor="#000000"
     borderopacity="0.25"
     inkscape:showpageshadow="2"
     inkscape:pageopacity="0.0"
     inkscape:pagecheckerboard="0"
     inkscape:deskcolor="#d1d1d1"
     inkscape:zoom="5.3348214"
     inkscape:cx="112"
     inkscape:cy="54.078661"
     inkscape:window-width="1920"
     inkscape:window-height="1009"
     inkscape:window-x="-8"
     inkscape:window-y="431"
     inkscape:window-maximized="1"
     inkscape:current-layer="svg11" />
  <path
     d="M0 0 C24.52798737 20.43280495 35.6476753 55.1029191 39.4375 85.875 C39.61923514 89.2593121 39.5988887 92.4858372 39.4375 95.875 C33.29100354 98.61415345 26.94749277 98.92094945 20.3125 99.5 C19.57959747 99.56503723 18.84669495 99.63007446 18.09158325 99.69708252 C0.48984477 101.1853498 -17.16541536 101.21114051 -34.81734467 101.24425507 C-37.12836499 101.25000838 -39.43931041 101.26110224 -41.75030518 101.27325439 C-45.43288642 101.29086415 -49.1150893 101.29130702 -52.79768562 101.2780838 C-54.1763391 101.27500597 -55.5550123 101.27672866 -56.93365288 101.28343964 C-58.83670599 101.29107899 -60.73980887 101.27765762 -62.64282227 101.26318359 C-64.25532616 101.25960342 -64.25532616 101.25960342 -65.90040588 101.25595093 C-68.5625 100.875 -68.5625 100.875 -70.41348267 99.57092285 C-72.38492451 96.66112056 -71.87694707 93.32989191 -71.76953125 89.9453125 C-71.75630325 89.15085724 -71.74307526 88.35640198 -71.72944641 87.53787231 C-71.70006803 85.84483077 -71.6642757 84.1518904 -71.62261963 82.45910645 C-71.56406592 79.94230756 -71.53017521 77.42651781 -71.50537109 74.90917969 C-71.4619403 70.70749527 -71.38815577 66.5071235 -71.30004883 62.30615234 C-71.26661475 60.59856789 -71.23864187 58.89086798 -71.21606445 57.18310547 C-70.94753256 37.19747652 -69.21258512 19.02441501 -54.72265625 3.80859375 C-39.62610663 -9.70459262 -16.50558288 -11.95524239 0 0 Z "
     fill="#14E9EC"
     transform="translate(184.5625,7.125)"
     id="path1"
     style="fill:#f5f5f5;fill-opacity:1" />
  <path
     d="M0 0 C7.08782778 5.17564403 11.4587437 11.23995625 15.5 18.9375 C15.83781494 19.55995605 16.17562988 20.18241211 16.52368164 20.82373047 C22.45110674 32.7325891 21.57886794 46.95023451 21.8125 59.9375 C21.85082819 61.65301135 21.8898875 63.36850654 21.9296875 65.08398438 C22.0239215 69.30057939 22.0913323 73.5170562 22.14758301 77.73431396 C22.18826456 80.29818495 22.25128303 82.86093602 22.31542969 85.42431641 C22.34390148 87.06020758 22.371603 88.6961124 22.3984375 90.33203125 C22.43404282 91.46447517 22.43404282 91.46447517 22.47036743 92.61979675 C22.52687085 97.74927805 22.52687085 97.74927805 21.03834534 99.94551086 C18.40684271 101.80021288 16.47173344 101.63107009 13.26782227 101.63818359 C12.04171738 101.64750916 10.81561249 101.65683472 9.55235291 101.66644287 C8.20286821 101.66102569 6.85338583 101.65500652 5.50390625 101.6484375 C4.10262305 101.65156585 2.70134174 101.65567395 1.30006409 101.66070557 C-2.44445735 101.66900537 -6.18859879 101.65580597 -9.93306732 101.63611603 C-12.24324717 101.6250324 -14.55338481 101.61926308 -16.86358643 101.6149292 C-34.49813245 101.5752591 -52.10932109 101.43487467 -69.6875 99.875 C-70.4087204 99.8120575 -71.1299408 99.74911499 -71.87301636 99.68426514 C-83.47143755 98.63021606 -83.47143755 98.63021606 -88.8125 96.25 C-90.25154214 66.03011513 -76.85873246 30.45307789 -57.25 7.75 C-41.54291186 -8.82668471 -19.854827 -12.19272933 0 0 Z "
     fill="#14E9EC"
     transform="translate(88.8125,6.75)"
     id="path2"
     style="fill:#f5f5f5;fill-opacity:1" />
  <path
     d="M0 0 C1.00496852 3.01490557 1.10335303 5.04181692 1.0625 8.1875 C1.05347656 9.08855469 1.04445313 9.98960938 1.03515625 10.91796875 C1.02355469 11.60503906 1.01195312 12.29210937 1 13 C-5.14649646 15.73915345 -11.49000723 16.04594945 -18.125 16.625 C-18.85790253 16.69003723 -19.59080505 16.75507446 -20.34591675 16.82208252 C-37.94765523 18.3103498 -55.60291536 18.33614051 -73.25484467 18.36925507 C-75.56586499 18.37500838 -77.87681041 18.38610224 -80.18780518 18.39825439 C-83.87038642 18.41586415 -87.5525893 18.41630702 -91.23518562 18.4030838 C-92.6138391 18.40000597 -93.9925123 18.40172866 -95.37115288 18.40843964 C-97.27420599 18.41607899 -99.17730887 18.40265762 -101.08032227 18.38818359 C-102.69282616 18.38460342 -102.69282616 18.38460342 -104.33790588 18.38095093 C-107 18 -107 18 -108.85166931 16.67178345 C-111.55307082 12.73898049 -110.13649773 6.59542369 -110 2 C-109.2268042 2.14147461 -108.4536084 2.28294922 -107.65698242 2.42871094 C-95.75664102 4.32397208 -83.92458055 4.30355234 -71.89575195 4.26074219 C-68.33722688 4.25007413 -64.77921238 4.26065921 -61.22070312 4.2734375 C-44.14749797 4.2836808 -27.56134656 3.15609982 -10.72265625 0.375 C-7.0992507 -0.12406303 -3.65043747 -0.14315441 0 0 Z "
     fill="#69F8FA"
     transform="translate(223,90)"
     id="path3"
     style="fill:#000000;fill-opacity:1" />
  <path
     d="M0 0 C7.34232485 0.49875311 14.62055362 1.16760559 21.9150238 2.13923645 C36.06567188 3.98879654 50.02393104 4.43499614 64.28295898 4.33618164 C67.98768254 4.31217481 71.69170051 4.31570763 75.39648438 4.32226562 C77.79427507 4.31669873 80.1920628 4.30959514 82.58984375 4.30078125 C84.21973488 4.30214836 84.21973488 4.30214836 85.8825531 4.30354309 C91.97837611 4.24747899 97.67183779 3.69240262 103.63941956 2.42692566 C106 2 106 2 110 2 C110.0810206 4.10353495 110.13919907 6.20795952 110.1875 8.3125 C110.22230469 9.48425781 110.25710937 10.65601562 110.29296875 11.86328125 C110 15 110 15 108.85166931 16.67178345 C106.22186005 18.55816573 104.30028023 18.38103447 101.08032227 18.38818359 C99.85421738 18.39750916 98.62811249 18.40683472 97.36485291 18.41644287 C96.01536821 18.41102569 94.66588583 18.40500652 93.31640625 18.3984375 C91.91512305 18.40156585 90.51384174 18.40567395 89.11256409 18.41070557 C85.36804265 18.41900537 81.62390121 18.40580597 77.87943268 18.38611603 C75.56925283 18.3750324 73.25911519 18.36926308 70.94891357 18.3649292 C53.31436755 18.3252591 35.70317891 18.18487467 18.125 16.625 C17.4037796 16.5620575 16.6825592 16.49911499 15.93948364 16.43426514 C4.34106245 15.38021606 4.34106245 15.38021606 -1 13 C-1.02708567 11.39592672 -1.04643483 9.7917215 -1.0625 8.1875 C-1.07410156 7.29417969 -1.08570312 6.40085937 -1.09765625 5.48046875 C-1 3 -1 3 0 0 Z "
     fill="#69F8FA"
     transform="translate(1,90)"
     id="path4"
     style="fill:#000000;fill-opacity:1" />
  <path
     d="M0 0 C6.8359375 -0.1953125 6.8359375 -0.1953125 9 0 C11 2 11 2 11.1953125 4.6015625 C11.17210937 5.59929687 11.14890625 6.59703125 11.125 7.625 C11.10695312 8.62789062 11.08890625 9.63078125 11.0703125 10.6640625 C11.03550781 11.82035156 11.03550781 11.82035156 11 13 C10.01 13 9.02 13 8 13 C8 11.35 8 9.7 8 8 C6.35 8 4.7 8 3 8 C3 9.65 3 11.3 3 13 C2.01 13 1.02 13 0 13 C0 8.71 0 4.42 0 0 Z "
     fill="#A1FBFD"
     transform="translate(125,70)"
     id="path5"
     style="fill:#000000;fill-opacity:1" />
  <path
     d="M0 0 C2.375 -0.125 2.375 -0.125 5 0 C5.66 0.66 6.32 1.32 7 2 C6.67028521 5.29714793 6.3773161 6.6226839 4 9 C4.99 9.33 5.98 9.66 7 10 C7 10.99 7 11.98 7 13 C4.03 13 1.06 13 -2 13 C-0.75023244 9.34683329 -0.32901247 8.21934164 3 6 C3.72382467 3.94074861 3.72382467 3.94074861 4 2 C3.01 2 2.02 2 1 2 C1 2.66 1 3.32 1 4 C0.01 4 -0.98 4 -2 4 C-1.34 2.68 -0.68 1.36 0 0 Z "
     fill="#93F9FB"
     transform="translate(141,70)"
     id="path6"
     style="fill:#000000;fill-opacity:1" />
  <path
     d="M0 0 C1.99954746 -0.04254356 4.00041636 -0.04080783 6 0 C7 1 7 1 7.25 3.9375 C7.1675 4.948125 7.085 5.95875 7 7 C6.01 7.66 5.02 8.32 4 9 C5.32 9.33 6.64 9.66 8 10 C8 10.99 8 11.98 8 13 C5.03 13 2.06 13 -1 13 C0.07126427 8.71494293 0.97283977 7.93256147 4 5 C4.33 4.01 4.66 3.02 5 2 C3.02 2.66 1.04 3.32 -1 4 C-0.67 2.68 -0.34 1.36 0 0 Z "
     fill="#9AFAFC"
     transform="translate(91,70)"
     id="path7"
     style="fill:#000000;fill-opacity:1" />
  <path
     d="M0 0 C0.99 0 1.98 0 3 0 C3 3.3 3 6.6 3 10 C4.98 10 6.96 10 9 10 C9 10.99 9 11.98 9 13 C6.03 13 3.06 13 0 13 C0 8.71 0 4.42 0 0 Z "
     fill="#92F9FB"
     transform="translate(78,70)"
     id="path8"
     style="fill:#000000;fill-opacity:1" />
  <path
     d="M0 0 C2.375 -0.125 2.375 -0.125 5 0 C7.39763185 2.39763185 7.34280586 3.33273498 7.625 6.625 C7.69976562 7.44226563 7.77453125 8.25953125 7.8515625 9.1015625 C7.92503906 10.04128906 7.92503906 10.04128906 8 11 C7.01 11 6.02 11 5 11 C5 9.35 5 7.7 5 6 C3.35 6 1.7 6 0 6 C0 4.02 0 2.04 0 0 Z "
     fill="#97FAFB"
     transform="translate(128,72)"
     id="path9"
     style="fill:#000000;fill-opacity:1" />
  <path
     d="M0 0 C1.65 0 3.3 0 5 0 C5.33 0.99 5.66 1.98 6 3 C4.35 2.67 2.7 2.34 1 2 C1 2.66 1 3.32 1 4 C0.01 4 -0.98 4 -2 4 C-1.34 2.68 -0.68 1.36 0 0 Z "
     fill="#A3FCFD"
     transform="translate(141,70)"
     id="path10"
     style="fill:#000000;fill-opacity:1" />
  <path
     d="M0 0 C1.65 0 3.3 0 5 0 C4.67 1.32 4.34 2.64 4 4 C2.68 4 1.36 4 0 4 C0 2.68 0 1.36 0 0 Z "
     fill="#2CECEE"
     transform="translate(128,72)"
     id="path11"
     style="fill:#ffffff;fill-opacity:1" />
</svg>
