<?xml version="1.0" encoding="UTF-8" standalone="no"?>
<svg
   version="1.1"
   width="55"
   height="57"
   id="svg6"
   sodipodi:docname="undefined - Imgur.svg"
   inkscape:export-filename="undefined - Imgur.png"
   inkscape:export-xdpi="96"
   inkscape:export-ydpi="96"
   inkscape:version="1.3 (0e150ed6c4, 2023-07-21)"
   xmlns:inkscape="http://www.inkscape.org/namespaces/inkscape"
   xmlns:sodipodi="http://sodipodi.sourceforge.net/DTD/sodipodi-0.dtd"
   xmlns="http://www.w3.org/2000/svg"
   xmlns:svg="http://www.w3.org/2000/svg">
  <defs
     id="defs6" />
  <sodipodi:namedview
     id="namedview6"
     pagecolor="#ffffff"
     bordercolor="#000000"
     borderopacity="0.25"
     inkscape:showpageshadow="2"
     inkscape:pageopacity="0.0"
     inkscape:pagecheckerboard="0"
     inkscape:deskcolor="#d1d1d1"
     inkscape:zoom="14.263158"
     inkscape:cx="27.51845"
     inkscape:cy="28.57011"
     inkscape:window-width="1920"
     inkscape:window-height="1009"
     inkscape:window-x="-8"
     inkscape:window-y="431"
     inkscape:window-maximized="1"
     inkscape:current-layer="svg6" />
  <path
     d="M0 0 C3.52441486 3.13281321 4.63801207 6.07469725 5.8125 10.5 C6.0909375 11.53253906 6.369375 12.56507812 6.65625 13.62890625 C10.34434689 28.3642193 10.34434689 28.3642193 7.81640625 33.5390625 C5.69221971 36.55986036 4.01326832 38.21848016 0.36328125 39.07421875 C-3.67046774 39.24907483 -6.48429008 38.844124 -10.125 37.0625 C-14.64764783 31.44345269 -15.56762405 24.22905567 -17 17.3125 C-17.14840332 16.63541992 -17.29680664 15.95833984 -17.44970703 15.26074219 C-18.31997547 10.72823302 -18.08007783 7.7057285 -16.1875 3.5 C-11.64060783 -1.92693582 -6.45369362 -3.03703229 0 0 Z "
     fill="#25DEE0"
     transform="translate(18.1875,18.5)"
     id="path1"
     style="fill:#ffffff;fill-opacity:1" />
  <path
     d="M0 0 C3.40391211 2.63976858 4.63562862 4.10006353 5.4375 8.28125 C5.72001363 14.14340792 4.58751064 19.70208767 3.25 25.375 C3.09345947 26.05288574 2.93691895 26.73077148 2.77563477 27.42919922 C1.64673854 31.78806803 0.10108541 34.74019762 -3 38 C-6.71453232 39.85726616 -10.95579425 39.58501089 -15 39 C-17.82424288 36.80977082 -19.41508603 35.16982793 -21 32 C-21.29014889 26.00578771 -20.56148619 20.65057099 -19.25 14.8125 C-19.09273437 14.03197266 -18.93546875 13.25144531 -18.7734375 12.44726562 C-17.55549391 6.92435989 -15.93102956 2.95015036 -11.02734375 -0.3125 C-7.245505 -1.59497326 -3.78348355 -1.1175414 0 0 Z "
     fill="#26DDDF"
     transform="translate(50,18)"
     id="path2"
     style="fill:#ffffff;fill-opacity:1" />
</svg>
