<?xml version="1.0" encoding="UTF-8" standalone="no"?>
<svg
   version="1.1"
   width="110"
   height="35"
   id="svg2"
   sodipodi:docname="undefined - Imgur (2).svg"
   inkscape:export-filename="undefined - Imgur (2).png"
   inkscape:export-xdpi="96"
   inkscape:export-ydpi="96"
   inkscape:version="1.3 (0e150ed6c4, 2023-07-21)"
   xmlns:inkscape="http://www.inkscape.org/namespaces/inkscape"
   xmlns:sodipodi="http://sodipodi.sourceforge.net/DTD/sodipodi-0.dtd"
   xmlns="http://www.w3.org/2000/svg"
   xmlns:svg="http://www.w3.org/2000/svg">
  <defs
     id="defs2" />
  <sodipodi:namedview
     id="namedview2"
     pagecolor="#ffffff"
     bordercolor="#000000"
     borderopacity="0.25"
     inkscape:showpageshadow="2"
     inkscape:pageopacity="0.0"
     inkscape:pagecheckerboard="0"
     inkscape:deskcolor="#d1d1d1"
     inkscape:zoom="10.863636"
     inkscape:cx="55"
     inkscape:cy="17.535565"
     inkscape:window-width="1920"
     inkscape:window-height="1009"
     inkscape:window-x="-8"
     inkscape:window-y="431"
     inkscape:window-maximized="1"
     inkscape:current-layer="svg2" />
  <path
     d="M0 0 C0.78630798 -0.00199402 1.57261597 -0.00398804 2.38275146 -0.00604248 C21.21806883 -0.00063695 21.21806883 -0.00063695 27.4375 2.375 C31.04554979 6.83200268 30.51617596 10.92387958 30.4375 16.375 C29.34324707 16.49504395 28.24899414 16.61508789 27.12158203 16.73876953 C-3.78820085 20.15654335 -34.4274165 24.03729837 -64.53125 32.078125 C-69.50109041 33.40005603 -74.50917498 34.4278408 -79.5625 35.375 C-79.69859913 33.64805325 -79.79499228 31.91795278 -79.875 30.1875 C-79.93300781 29.22457031 -79.99101563 28.26164062 -80.05078125 27.26953125 C-79.35870748 23.16691795 -77.7958203 21.95664334 -74.5625 19.375 C-71.75200544 17.69548336 -68.85050567 16.29946352 -65.875 14.9375 C-65.03775391 14.54989502 -64.20050781 14.16229004 -63.33789062 13.76293945 C-54.93171285 9.95694931 -46.42404726 6.92343166 -37.5625 4.375 C-36.88477539 4.16472168 -36.20705078 3.95444336 -35.50878906 3.73779297 C-23.80807517 0.18709579 -12.12561454 0.00821457 0 0 Z "
     fill="#69F8FA"
     transform="translate(79.5625,-0.37499999999999994)"
     id="path1"
     style="fill:#ffffff;fill-opacity:1" />
  <path
     d="M0 0 C0.7668512 -0.0033284 1.53370239 -0.0066568 2.3237915 -0.01008606 C3.94078984 -0.01512801 5.5577985 -0.01749523 7.17480469 -0.01733398 C9.61931997 -0.01951227 12.06337735 -0.03767433 14.5078125 -0.05664062 C22.57382458 -0.08473767 30.02138967 0.15287104 37.890625 2.16796875 C37.890625 2.49796875 37.890625 2.82796875 37.890625 3.16796875 C37.19952637 3.23266357 36.50842773 3.2973584 35.79638672 3.36401367 C11.35850556 5.69954538 -12.71175981 9.35281957 -36.671875 14.73046875 C-37.92524658 15.01116211 -39.17861816 15.29185547 -40.4699707 15.58105469 C-47.60396014 17.22747026 -54.54231503 19.16770953 -61.48022461 21.51147461 C-64.109375 22.16796875 -64.109375 22.16796875 -67.109375 21.16796875 C-47.03974548 9.70332287 -23.44924212 0.03598707 0 0 Z "
     fill="#16E9EC"
     transform="translate(69.109375,-0.16796875)"
     id="path2"
     style="fill:#ffffff;fill-opacity:1" />
</svg>
