<?xml version="1.0" encoding="UTF-8" standalone="no"?>
<svg
   id="Layer_1"
   data-name="Layer 1"
   width="286"
   height="94"
   viewBox="0 0 286 94"
   version="1.1"
   sodipodi:docname="sticks.svg"
   inkscape:version="1.3 (0e150ed6c4, 2023-07-21)"
   xmlns:inkscape="http://www.inkscape.org/namespaces/inkscape"
   xmlns:sodipodi="http://sodipodi.sourceforge.net/DTD/sodipodi-0.dtd"
   xmlns="http://www.w3.org/2000/svg"
   xmlns:svg="http://www.w3.org/2000/svg">
  <sodipodi:namedview
     id="namedview11"
     pagecolor="#ffffff"
     bordercolor="#000000"
     borderopacity="0.25"
     inkscape:showpageshadow="2"
     inkscape:pageopacity="0.0"
     inkscape:pagecheckerboard="0"
     inkscape:deskcolor="#d1d1d1"
     inkscape:zoom="4.1783217"
     inkscape:cx="143"
     inkscape:cy="47.028452"
     inkscape:window-width="1920"
     inkscape:window-height="1009"
     inkscape:window-x="-8"
     inkscape:window-y="525"
     inkscape:window-maximized="1"
     inkscape:current-layer="g3" />
  <defs
     id="defs1">
    <style
       id="style1">&#10;      .cls-1 {&#10;        fill: #0f0f0f;&#10;      }&#10;&#10;      .cls-2 {&#10;        fill: #121212;&#10;      }&#10;&#10;      .cls-3 {&#10;        fill: #141414;&#10;      }&#10;&#10;      .cls-4 {&#10;        fill: #f0f0f0;&#10;      }&#10;&#10;      .cls-5 {&#10;        fill: #ededed;&#10;      }&#10;&#10;      .cls-6 {&#10;        fill: #ebebeb;&#10;      }&#10;    </style>
  </defs>
  <g
     id="g3">
    <g
       id="g2">
      <path
         class="cls-1"
         d="M47,92.5A45.5,45.5,0,1,1,92.5,47,45.54,45.54,0,0,1,47,92.5Z"
         id="path1"
         style="fill:#232323;fill-opacity:1" />
      <path
         class="cls-2"
         d="M47,3A44,44,0,1,1,3,47,44,44,0,0,1,47,3m0-3A47,47,0,1,0,94,47,46.95,46.95,0,0,0,47,0Z"
         id="path2"
         style="fill:#18359e;fill-opacity:1" />
    </g>
    <circle
       class="cls-3"
       cx="47"
       cy="47"
       r="27.3"
       id="circle2"
       style="fill:#000000;fill-opacity:1" />
  </g>
  <g
     id="g7">
    <g
       id="g4">
      <path
         class="cls-4"
         d="M239,92.5A45.5,45.5,0,1,1,284.5,47,45.54,45.54,0,0,1,239,92.5Z"
         id="path3" />
      <path
         class="cls-5"
         d="M239,3a44,44,0,1,1-44,44A44,44,0,0,1,239,3m0-3a47,47,0,1,0,47,47A46.95,46.95,0,0,0,239,0Z"
         id="path4" />
    </g>
    <circle
       class="cls-6"
       cx="239"
       cy="47"
       r="27.3"
       id="circle4" />
    <g
       id="g6">
      <path
         d="M218.7,33.5h12.6c5.8,0,8.7,2.7,8.7,7.1,0,5.1-3.5,6.4-4.4,6.7v.1c1.6.2,3.9,1.4,3.9,5.6,0,3.1.4,5.9,1.4,7h-5a7.36,7.36,0,0,1-.7-3.9c0-4.8-1-7-5.3-7h-6.8V60h-4.6V33.5Zm4.6,12.1h7.6q4.5,0,4.5-4.2c0-3.4-2.2-4-4.6-4h-7.5Z"
         id="path5" />
      <path
         d="M250.3,44.8c2.8.1,5.7-.9,5.7-4.1a3.71,3.71,0,0,0-4-3.7c-2.9,0-4.4,2.6-4.3,5.3h-4.2c.2-5,3.4-8.8,8.6-8.8,4,0,8.2,2.3,8.2,6.9,0,2.6-1.1,4.7-3.7,5.5V46c3,.6,4.7,3.1,4.7,6.5,0,4.9-4.3,7.9-9.2,7.9-6,0-9-3.6-9.1-9h4.2c-.1,3.1,1.6,5.5,4.9,5.5,2.8,0,5-1.7,5-4.6,0-4-3.4-4.5-6.8-4.4V44.8Z"
         id="path6" />
    </g>
  </g>
  <g
     id="g11">
    <g
       id="g8">
      <path
         class="cls-4"
         d="M143,92.5A45.5,45.5,0,1,1,188.5,47,45.54,45.54,0,0,1,143,92.5Z"
         id="path7" />
      <path
         class="cls-5"
         d="M143,3A44,44,0,1,1,99,47,44,44,0,0,1,143,3m0-3a47,47,0,1,0,47,47A46.95,46.95,0,0,0,143,0Z"
         id="path8" />
    </g>
    <circle
       class="cls-6"
       cx="143"
       cy="47"
       r="27.3"
       id="circle8" />
    <g
       id="g10">
      <path
         d="M125.1,33.5h4.6V55.9h13.4v4h-18Z"
         id="path9" />
      <path
         d="M151.9,44.8c2.8.1,5.7-.9,5.7-4.1a3.71,3.71,0,0,0-4-3.7c-2.9,0-4.4,2.6-4.3,5.3h-4.2c.2-5,3.4-8.8,8.6-8.8,4,0,8.2,2.3,8.2,6.9,0,2.6-1.1,4.7-3.7,5.5V46c3,.6,4.7,3.1,4.7,6.5,0,4.9-4.3,7.9-9.2,7.9-6,0-9-3.6-9.1-9h4.2c-.1,3.1,1.6,5.5,4.9,5.5,2.8,0,5-1.7,5-4.6,0-4-3.4-4.5-6.8-4.4V44.8Z"
         id="path10" />
    </g>
  </g>
</svg>
